<?xml version="1.0" encoding="UTF-8"?>
<svg id="b" data-name="Layer 2" xmlns="http://www.w3.org/2000/svg" width="1079.995" height="1079.995" viewBox="0 0 1079.995 1079.995">
  <g id="c" data-name="ModelSketch_Visible">
    <g id="d" data-name="ARC">
      <path d="M1072.108,548.978l-82.91,14.74-75.9,21.76-68.87,28.77-61.86,35.79-54.84,42.81-47.83,49.83-38.66,53.41-32.42,59.64-26.19,65.89-19.94,72.13-13.71,78.36c-.53,4.08-3.74,7.28-7.81,7.81-4.96.65-9.51-2.85-10.15-7.81l-14.74-82.91-21.76-75.9-28.77-68.87-35.79-61.86-42.81-54.84-49.83-47.83-53.41-38.66-59.64-32.42-65.89-26.19-72.13-19.94-78.36-13.71c-4.08-.53-7.28-3.74-7.81-7.81-.65-4.96,2.85-9.51,7.81-10.15l82.91-14.74,75.9-21.76,68.87-28.77,61.86-35.79,54.84-42.81,47.83-49.83,38.66-53.41,32.42-59.64,26.19-65.89,19.94-72.13,13.71-78.36c.53-4.08,3.74-7.28,7.81-7.81,4.96-.65,9.51,2.85,10.15,7.81l14.74,82.91,21.76,75.9,28.77,68.87,35.79,61.86,42.81,54.84,49.83,47.83,53.41,38.66,59.64,32.42,65.89,26.19,72.13,19.94,78.36,13.71c4.08.53,7.28,3.74,7.81,7.81.65,4.96-2.85,9.51-7.81,10.15Z" fill="#fff"/>
    </g>
  </g>
</svg>