<?xml version="1.0" encoding="UTF-8"?>
<svg id="b" data-name="Layer 2" xmlns="http://www.w3.org/2000/svg" width="596.761" height="273.346" viewBox="0 0 596.761 273.346">
  <g id="c" data-name="Vectors">
    <g class="vectorAccent">
      <path d="M230.567,148.498l-30.794-9.367c-.139-.042-.287-.049-.43-.018l-9.497,2.047c-.142.031-.289.025-.427-.017l-47.735-14.342c-.202-.061-.374-.193-.484-.373l-3.051-4.981c-.114-.187-.296-.322-.507-.38l-37.71-10.218c-.545-.148-1.081.263-1.081.827h0c0,.325.183.621.474.767l.816.408c.175.087.315.232.396.41l14.356,31.376c.077.168.097.357.058.538l-.675,3.115c-.029.136-.091.262-.18.368L29.46,249.89c-.053.064-.115.119-.184.165L.384,269.192c-.24.159-.384.427-.384.715v2.582c0,.599.598,1.013,1.159.802l51.081-19.202c.193-.073.407-.073.6-.001l1.767.657c.177.066.371.071.551.016l22.805-7.032c.173-.053.325-.161.434-.306l9.214-12.327c.097-.13.23-.23.381-.288l35.492-13.516c.179-.068.375-.074.558-.018l4.779,1.474c.187.058.388.05.57-.023l22.273-8.892c.077-.031.149-.072.214-.123l79.5-62.803c.334-.264.424-.733.211-1.102l-.529-.915c-.109-.188-.285-.328-.493-.391ZM155.854,181.673l-2.097,4.766c-.082.185-.226.336-.408.425l-50.412,24.613c-.208.102-.449.115-.667.036l-4.258-1.534c-.218-.079-.459-.065-.667.036l-12.336,6.026c-.227.111-.492.116-.723.014l-8.969-3.972c-.504-.223-.67-.858-.338-1.299l47.343-62.92c.116-.154.28-.264.466-.313l23.025-6.068c.21-.055.434-.029.625.074l18.38,9.902c.188.101.331.269.402.47l7.227,20.567c.144.41-.042.863-.432,1.054l-15.753,7.697c-.182.089-.327.239-.408.425ZM176.708,170.061l-5.652-13.885c-.289-.709.427-1.412,1.131-1.111l3.855,1.647c.186.08.395.091.589.031l2.583-.795c.305-.094.637-.01.862.217l7.418,7.504c.394.398.306,1.061-.178,1.343l-9.381,5.466c-.45.262-1.029.065-1.225-.417Z" fill="#e23432"/>
      <path d="M250.36,144.375l-5.618-1.59c-.351-.099-.729-.017-1.007.219l-16.705,14.173c-.176.149-.3.349-.355.573l-.83,3.362c-.055.223-.179.424-.355.573l-26.211,22.239c-.156.132-.346.218-.548.248l-3.961.588c-.202.03-.392.116-.548.248l-14.984,12.715c-.481.408-.519,1.138-.082,1.593l15.695,16.387c.298.312.752.419,1.159.274l42.505-15.122c.411-.146.696-.522.726-.957l.425-6.206c.028-.41.283-.769.66-.932l1.131-.486c.211-.091.388-.246.507-.443l29.762-49.587c.102-.17.156-.365.156-.564h0c0-.688-.627-1.206-1.303-1.076l-19.712,3.79c-.168.032-.341.025-.505-.022ZM207.773,187.66l5.767-5.818c.367-.37.943-.431,1.379-.145l3.356,2.2c.534.35.426,1.162-.182,1.36l-9.827,3.202c-.481.157-.848-.439-.492-.798ZM242.681,177.248l-13.105,4.266c-.314.102-.657.057-.934-.122l-7.809-5.045c-.584-.378-.673-1.197-.184-1.691l25.731-25.987c.283-.286.701-.394,1.087-.28l3.608,1.058c.594.174.926.805.733,1.393l-8.425,25.707c-.109.332-.37.592-.702.701Z" fill="#e23432"/>
      <path d="M291.389,139.272h0c.228.325.298.736.19,1.118l-5.299,18.82c-.119.422-.44.758-.856.897l-1.511.502c-.458.152-.797.542-.884,1.017l-2.633,14.389c-.09.491.104.991.502,1.292l.678.513c.379.287.575.756.512,1.228l-1.359,10.257c-.056.426-.316.798-.697.998l-21.204,11.115c-.43.226-.95.197-1.353-.074l-11.393-7.671c-.588-.396-.76-1.186-.388-1.79l21.263-34.579c.163-.265.227-.578.182-.886l-.258-1.753c-.04-.274.006-.554.134-.8l10.665-20.63c.593-1.147,2.311-.852,2.486.428l.964,7.047c.038.275-.012.555-.143.8l-6.614,12.442c-.102.191-.155.404-.155.621v3.149c0,.268-.081.529-.233.75l-12.791,18.59c-.178.259-.443.446-.746.528l-2.055.553c-.336.09-.623.309-.798.61l-3.691,6.311c-.269.461-.236,1.038.086,1.464l4.323,5.731c.278.369.729.566,1.189.519l1.876-.19c.412-.042.781-.274.996-.628l5.001-8.206c.222-.364.255-.814.088-1.206l-.483-1.135c-.141-.332-.141-.707.001-1.038l14-32.714c.151-.353.449-.624.815-.74l4.519-1.437c.387-.123.696-.417.838-.798l1.912-5.118c.373-.997,1.71-1.168,2.322-.297Z" fill="#e23432"/>
      <path d="M362.69,228.836l-5.38-4.09-10.75-15.618-4.518-.169-20.545-29.85,1.56-4.129-2.397-3.483s-21.34,16.35-21.54,16.35-1.55,4.29-1.55,4.29l-3.96,1.48-4.09,12.39.59,4.28-9.47,20.95-.91-1.43,2.33-15.63-.51-2.59,11.54-68.89,38.34-7.07,3.76-2.01,5.97,14.59-3.7,5.45-4.02-8.43-36.59,2.33-3.24,27.05,6.81,4.54,16.93-13.16-7.72-9.09-10.51-5.51,32.57-3.18,28.28,72.91v2.14l2.72,5.58Z" fill="#e23432"/>
      <path d="M225.146,141.396h-2.216c-.146,0-.29-.022-.429-.067l-37.114-11.792c-.024-.008-.049-.016-.073-.025l-40.52-15.341c-.2-.076-.415-.105-.628-.086l-3.664.326c-.257.023-.514-.025-.746-.137l-24.4-11.878c-.423-.206-.716-.608-.783-1.073l-1.46-10.183c-.065-.454-.346-.848-.753-1.059l-37.499-19.341c-.34-.175-.736-.206-1.099-.084l-4.663,1.56c-.382.128-.8.087-1.15-.112l-7.62-4.33c-.26-.148-.467-.374-.591-.647l-.592-1.306c-.122-.27-.326-.494-.582-.642l-4.372-2.523c-.193-.111-.357-.267-.479-.454l-19.088-29.299c-.123-.188-.288-.345-.483-.456l-7.329-4.197c-.231-.133-.421-.328-.546-.563l-1.076-2.018c-.119-.223-.296-.411-.512-.543L6.748,14.175c-.151-.092-.283-.212-.39-.353L1.585,7.536c-.866-1.14.312-2.698,1.645-2.177l42.824,16.738c1.114.435,2.233-.619,1.864-1.757l-4.029-12.435c-.378-1.166.802-2.229,1.923-1.733l2.845,1.262c.122.054.235.125.337.211l132.223,111.161c.095.08.2.147.312.199l15.222,7.114c1.354.633,2.639-.991,1.712-2.163l-35.026-44.292c-.174-.22-.279-.487-.301-.767l-.124-1.567c-.027-.344-.179-.666-.427-.906l-8.199-7.94c-.175-.169-.303-.38-.372-.613l-15.043-50.42c-.021-.07-.047-.138-.079-.204l-4.681-9.825c-.149-.313-.178-.67-.082-1.003l1.182-4.086c.328-1.135,1.82-1.394,2.511-.435l40.151,55.697c.239.331.609.544,1.016.582l4.722.447c.479.045.902.33,1.124.757l41.567,79.944c.491.944-.194,2.071-1.257,2.071Z" fill="#e23432"/>
      <path d="M238.093,140.366l-4.22,1.568c-.412.153-.871.106-1.243-.126l-1.968-1.227c-.235-.147-.423-.359-.538-.611l-25.068-54.588c-.095-.207-.239-.389-.419-.528l-1.393-1.081c-.302-.234-.497-.581-.54-.961l-2.921-25.853c-.109-.964.761-1.75,1.709-1.544l.403.087c.253.055.486.178.674.356l17.575,16.629c.219.208.367.48.421.777l2.228,12.304c.075.417.333.778.703.984l3.922,2.194c.353.197.604.536.692.93l10.875,49.054c.153.691-.227,1.389-.89,1.635Z" fill="#e23432"/>
      <path d="M216.308,62.804l-4.579-2.02c-.072-.032-.138-.075-.196-.128l-21.718-19.783c-.056-.051-.104-.111-.142-.176l-7.03-12.278c-.273-.477.061-1.073.61-1.089l11.435-.345c.188-.006.37.061.509.187l6.698,6.039c.062.056.115.123.154.197l15.193,28.386c.327.61-.302,1.289-.936,1.01Z" fill="#e23432"/>
      <path d="M217.65,53.203v.925c0,.538-.599.86-1.048.562l-1.717-1.141c-.102-.068-.183-.161-.236-.271l-6.074-12.734c-.043-.091-.066-.19-.066-.29v-2.164c0-.502.529-.828.977-.603l1.141.573c.137.069.247.183.311.322l6.65,14.541c.04.088.061.184.061.281Z" fill="#e23432"/>
      <path d="M278.392,124.932l-13.786,15.015c-.241.262-.575.418-.93.435l-15.137.705c-.616.029-1.174-.365-1.353-.955l-19.178-63.216c-.263-.866.385-1.739,1.29-1.739h3.339c.373,0,.729.155.984.427l19.318,20.647c.139.148.31.264.499.337l17.78,6.857c.414.16.88.105,1.247-.145l.512-.351c.805-.551,1.911-.091,2.087.868l1.799,9.78c.103.56-.157,1.124-.649,1.41l-8.328,4.836c-.547.318-1.242.212-1.67-.254l-1.915-2.085c-.287-.313-.705-.472-1.128-.429l-1.897.191c-.423.043-.84-.117-1.128-.429l-8.543-9.3c-.234-.255-.361-.59-.355-.937l.049-2.698c.006-.346-.121-.682-.355-.937l-4.451-4.846c-.493-.537-1.323-.584-1.874-.108l-1.615,1.395c-.425.367-.578.958-.384,1.485l8.411,22.887c.102.277.11.58.023.862l-.302.978c-.093.302-.077.627.045.918l1.02,2.434c.207.495.688.819,1.224.827l7.925.112c.262.004.52-.069.742-.21l14.631-9.288c.171-.109.364-.177.565-.201h0c.73-.086,1.394.429,1.493,1.157l.336,2.47c.054.397-.072.798-.343,1.094Z" fill="#e23432"/>
      <path d="M324.255,88.104l-4.752-2.768c-.307-.179-.698-.106-.92.17l-.876,1.089c-.064.079-.144.144-.235.19l-15.653,7.92c-.066.033-.136.056-.208.068l-5.809.95c-.271.044-.543-.07-.701-.293l-.161-.226c-.207-.292-.596-.387-.914-.223l-1.335.688c-.235.121-.384.361-.389.625l-.034,1.822c-.009.488-.492.825-.953.664l-2.843-.99c-.298-.104-.494-.391-.481-.706l.23-5.791c.006-.148.058-.291.148-.409l.708-.921c.156-.203.192-.475.094-.712l-29.26-70.816c-.059-.144-.164-.264-.297-.343l-1.094-.648v3.154c0,.057.007.114.02.17l8.586,35.168c.016.065.023.132.02.199l-.252,6.284c-.003.07.002.131.02.199.458,1.783,7.293,28.438,6.916,28.186-.313-.208-19.129-8.879-26.585-12.311-.701-.323-1.341.539-.838,1.123l12.368,14.343c.088.102.202.177.331.217l17.547,5.45c.256.08.446.295.494.559l6.708,37.569c.017.093.052.183.103.262l1.058,1.643c.314.488,1.047.421,1.267-.116l2.989-7.277c.038-.093.056-.193.054-.294l-.748-25.683c-.014-.478.434-.835.897-.716l2.297.593c.317.082.538.368.538.695v29.13c0,.256.137.493.358.621l4.321,2.498c.161.093.351.12.532.075l7.708-1.908c.162-.04.305-.136.405-.27l1.126-1.524c.252-.341.744-.391,1.059-.106h0c.373.337.968.197,1.15-.272l18.109-46.502c.225-.578-.34-1.151-.921-.932l-1.286.484c-.202.076-.427.057-.614-.052ZM300.013,125.817l-1.095-.617c-.233-.131-.373-.381-.365-.648l.506-15.725c.021-.658.842-.942,1.266-.439l7.712,9.157c.239.284.222.704-.039.967l-7.123,7.185c-.228.23-.581.279-.862.12ZM312.093,112.284l-9.909-8.84c-.38-.339-.296-.954.16-1.179l14.11-6.963c.199-.098.433-.099.633-.001l1.371.671c.331.162.485.547.358.893l-5.572,15.133c-.175.475-.773.624-1.151.288Z" fill="#e23432"/>
      <path d="M418.175,177.564c-.056.021-.107.032-.167.033-1.124.016-13.43.189-13.678.189-.234,0-22.935-9.287-25.779-10.451-.191-.078-.356-.207-.478-.373l-7.578-10.309c-.227-.309-.597-.481-.98-.454l-1.06.074c-.383.027-.753-.145-.98-.454l-20.506-27.894c-.161-.218-.236-.488-.214-.758l.179-2.112c.023-.27-.053-.539-.214-.758l-8.001-10.88c-.02-.027-.041-.054-.064-.079l-1.009-1.139c-.488-.551-.32-1.415.338-1.744l29.795-14.869c.232-.116.417-.309.523-.546l2.545-5.704c.167-.375.116-.812-.134-1.138l-.622-.811c-.168-.219-.412-.368-.683-.419l-24.642-4.58c-.28-.052-.57.005-.809.159l-15.972,10.252c-.21.135-.369.336-.452.572l-14.309,40.799c-.137.392-.047.828.236,1.132h0c.278.299.696.423,1.092.324l12.379-3.097c.441-.11.771-.476.836-.926l1.248-8.622c.177-1.226,1.92-1.299,2.199-.092l.559,2.417c.068.294.252.549.511.705l4.561,2.763c.186.112.335.276.429.472l10.61,22.028c.171.355.143.774-.074,1.103l-3.8,5.76-1.04-.72-.742.673c-.332.301-.453.771-.306,1.195l10.488,30.341c.066.19.182.359.335.489l1.717,1.453c.514.435,1.293.321,1.661-.243l3.061-4.691c.303-.464.899-.637,1.403-.407l17.565,8.022c.026.012.052.022.078.032l22.315,8.227c.357.131.747-.083.827-.454l.305-1.409c.041-.189.13-.363.258-.507l18.511-20.795c.114-.128.197-.281.243-.447l.428-1.551c.113-.411-.287-.777-.686-.627l-2.256.848ZM335.778,92.044l4.458-2.815c.179-.113.386-.173.598-.173h3.547c.341,0,.663.155.875.422l1.047,1.313c.262.328.318.776.145,1.158l-3.09,6.85c-.093.206-.246.379-.439.496l-1.478.899c-.283.172-.627.21-.94.104l-5.43-1.834c-.539-.182-.856-.739-.737-1.296l.946-4.413c.063-.295.242-.551.497-.712ZM331.813,107.707l1.133-4.876c.085-.367.464-.586.825-.475l2.943.903c.48.147.611.765.232,1.094l-4.38,3.806c-.338.294-.855-.017-.754-.454Z" fill="#e23432"/>
      <path d="M402.594,76.126l.703,1.052c.24.359.252.824.031,1.195l-32.951,55.368c-.103.173-.158.371-.158.573v.457c0,.441-.259.841-.661,1.021l-3.747,1.682c-.461.207-1.004.079-1.325-.312l-3.226-3.936c-.204-.249-.291-.574-.239-.891l.178-1.082c.039-.239,0-.484-.112-.699l-6.225-11.939c-.493-.946.491-1.98,1.46-1.535l3.048,1.4c.37.17.803.126,1.131-.115l5.798-4.263c.183-.135.321-.322.395-.536l9.405-27.194c.097-.28.3-.51.566-.64l5.57-2.724c.242-.118.433-.32.538-.567l2.099-4.932c.09-.211.242-.389.436-.511l19.211-12.022c.926-.58,2.049.375,1.627,1.382l-3.653,8.711c-.145.346-.107.743.102,1.055Z" fill="#e23432"/>
      <path d="M380.892,71.8l.085.232,1.085.414c.189,0,.374-.048.54-.139l27.229-14.985c.22-.121.392-.312.491-.543l7.435-17.489c.087-.205.111-.432.069-.651l-.127-.656c-.111-.575-.647-.966-1.228-.899l-2.349.272c-.324.037-.616.214-.799.485l-9.096,13.438c-.096.142-.224.26-.373.345l-9.45,5.388c-.281.16-.48.435-.543.753l-.956,4.773c-.071.356-.31.655-.642.803l-5.933,2.647c-.144.064-.274.159-.379.277l-5.058,5.535Z" fill="#e23432"/>
      <path d="M427.436,26.704l-.583,9.73c-.008.14-.043.277-.102.404l-4.373,9.429c-.052.112-.122.214-.207.303l-7.132,7.456-.47-1.128c-.115-.276-.115-.587,0-.863l10.073-24.046c.083-.197.22-.367.396-.488l1.71-1.182c.3-.208.708.022.686.387Z" fill="#e23432"/>
      <path d="M554.518,17.754l7.014-16.184c.437-1.008-.687-1.976-1.62-1.396l-46.717,29.113c-.03.019-.062.036-.094.052l-100.769,50.088c-.538.267-1.191.063-1.48-.464l-1.045-1.903c-.44-.802-1.604-.766-1.994.061l-27.082,57.416c-.184.39-.128.85.144,1.184l.763.938c.276.339.723.486,1.146.378l6.854-1.754c.272-.07.507-.238.66-.473l9.847-15.111c.133-.204.321-.356.549-.439,7.527-2.724,23.466-8.426,35.823-12.839,1.087-.388,1.974.926,1.213,1.794l-16.555,18.899c-.154.175-.358.299-.585.352l-.868.204c-.506.119-.863.57-.863,1.09v.943c0,.265.094.521.265.723l4.354,5.149c.366.432.997.524,1.47.213l30.428-20.002c.172-.113.31-.272.398-.458l4.608-9.765c.084-.177.212-.329.373-.441l42.883-29.827c.233-.162.518-.229.798-.189l9.284,1.33c.259.037.522-.017.745-.154l38.256-23.484c.145-.089.267-.209.358-.352l16.848-26.433c.088-.138.205-.255.342-.342l24.137-15.388c.24-.153.413-.393.483-.669l1.198-4.726c.225-.889-.656-1.657-1.506-1.313l-38.614,15.66c-.929.377-1.847-.563-1.448-1.483ZM413.293,99.548l15.422-23.653c.114-.176.276-.315.466-.404l4.092-1.902c.561-.261,1.228-.017,1.488.545l9.191,19.851c.305.658-.087,1.427-.798,1.569l-28.705,5.704c-.972.193-1.698-.879-1.156-1.71ZM451.198,90.346l-7.737-20.325c-.209-.549.042-1.167.575-1.414l43.005-19.946c1.098-.509,2.111.843,1.313,1.753l-35.269,40.271c-.556.635-1.588.45-1.889-.339Z" fill="#e23432"/>
      <path d="M485.029,98.16l-2.715,9.683c-.068.241-.217.451-.423.594l-21.145,14.675c-.466.323-1.102.23-1.455-.213l-.562-.704c-.225-.281-.294-.656-.185-.999l3.02-9.499c.075-.234.227-.436.432-.572l21.401-14.155c.832-.55,1.9.229,1.631,1.189Z" fill="#e23432"/>
      <path d="M482.029,187.108l-2.745-3.523c-.127-.163-.298-.286-.493-.354l-45.014-15.81c-.085-.03-.172-.049-.262-.057l-1.622-.144c-.248-.022-.481-.129-.659-.304l-28.011-27.453c-.201-.197-.472-.308-.754-.308h-26.503c-.595,0-1.077.482-1.077,1.077v2.313c0,.264.097.52.273.717l1.209,1.356c.11.124.19.271.234.43l5.252,19.034c.083.3.292.55.573.685l19.729,9.446c.233.112.497.137.746.068.751-.207,2.332-.677,2.332-.967,0-.345-1.677-3.206-2.062-3.858-.053-.089-.091-.184-.116-.285l-1.57-6.295c-.196-.787.514-1.5,1.302-1.306l12.252,3.007c.205.05.391.16.534.315l13.307,14.409c.293.317.368.778.191,1.172l-3.514,7.823c-.056.124-.135.237-.233.332l-10.69,10.36c-.625.606-.311,1.664.544,1.83l23.862,4.646c.166.032.337.025.499-.021l53.955-15.29c.657-.186.588-1.139-.089-1.229l-10.676-1.413c-.28-.037-.535-.183-.708-.406ZM385.729,148.229l-1.826-4.976c-.128-.348.13-.717.501-.717h5.32c.432,0,.685.487.437.84l-3.494,4.976c-.247.352-.789.281-.937-.123ZM392.231,152.689l3.459-5.426c.363-.569,1.155-.668,1.646-.205l10.613,9.991c.42.395.039,1.09-.52.949l-14.555-3.685c-.712-.18-1.038-1.004-.644-1.623Z" fill="#e23432"/>
      <path d="M595.292,273.099l-56.761-22.063c-.034-.013-.068-.028-.1-.045l-9.876-5.05c-.32-.164-.701-.157-1.015.018l-4.349,2.425c-.314.175-.695.182-1.015.018l-38.625-19.75c-.305-.156-.517-.447-.572-.784l-.85-5.174c-.055-.338-.268-.629-.572-.784l-4.959-2.536c-.176-.09-.373-.13-.569-.115l-27.682,2.036c-.195.014-.382.081-.541.194l-12.656,8.913c-.135.095-.246.22-.325.364l-2.138,3.915c-.276.505-.9.704-1.417.452l-5.767-2.812c-.078-.038-.16-.066-.244-.085l-16.74-3.624c-.105-.023-.214-.03-.321-.02l-14.287,1.243c-.301.026-.6-.076-.823-.281l-27.065-24.915c-.222-.204-.348-.491-.348-.792v-4.62c0-.705.667-1.22,1.349-1.042l70.483,18.393c.173.045.354.047.528.004l4.672-1.142c.248-.061.509-.031.737.083l1.837.918c.262.131.566.15.841.052l49.718-17.626c.436-.155.923-.013,1.208.351l1.707,2.181c.102.131.233.236.383.307l18.271,8.754c.12.058.229.137.32.235l31.097,33.157c.102.109.226.196.364.254l6.858,2.916c1.047.445,1.979-.827,1.24-1.691l-43.776-51.158c-.48-.561-.266-1.429.421-1.701l6.912-2.744c.61-.242.864-.97.536-1.539l-3.54-6.141c-.157-.273-.426-.463-.736-.521l-73.164-13.604c-.195-.036-.376-.125-.523-.258l-1.997-1.794c-.155-.139-.347-.231-.553-.263l-3.517-.551c-.207-.032-.4-.125-.556-.265l-25.475-23.054c-.518-.468-.46-1.298.118-1.69h0c.192-.13.42-.195.652-.185l21.449.938c.243.011.482-.061.678-.203l13.815-9.994c.396-.286.935-.27,1.313.039l3.301,2.699c.217.177.494.263.773.239l6.943-.589c.185-.016.363-.079.516-.184l25.385-17.323c.152-.103.274-.244.356-.408l5.289-10.577c.083-.165.207-.307.36-.41l53.499-36.181c.156-.105.336-.168.524-.182l4.445-.329c.833-.062,1.416.807,1.043,1.555l-11.399,22.844c-.137.274-.384.477-.68.558l-5.758,1.572c-.326.089-.591.325-.716.639l-16.886,42.215c-.111.279-.102.591.027.862l1.03,2.167c.127.267.138.573.032.849l-6.994,18.172c-.402,1.044-1.931.859-2.073-.25l-3.418-26.609c-.093-.727-.87-1.15-1.531-.835l-39.855,18.988c-.128.061-.266.096-.407.103l-8.776.455c-1.202.062-1.412,1.749-.262,2.104l76.626,23.663c.225.069.421.211.558.402l19.384,27.058c.236.329.267.763.081,1.123l-4.842,9.338c-.186.36-.155.793.08,1.123l22.734,31.752c.067.094.149.176.243.244l26.144,18.999c.204.148.349.363.411.607l1.201,4.737c.215.849-.618,1.586-1.434,1.268Z" fill="#e23432"/>
    </g>
  </g>
</svg>